# xmcd
#
# Track frame offsets: 
#        150
#        5232
#        26003
#        40501
#        54903
#        77986
#        93449
#        114884
#        132889
#        148314
#        160103
#        172734
#        189730
#        207238
#        226315
#
# Disc length: 3488 seconds
#
# Revision: 0
# Processed by: cddbd v1.5.2PL0 Copyright (c) Steve Scherf et al.
# Submitted via: ExactAudioCopy v0.99pb4
#
DISCID=bf0d9e0f
DTITLE=Kaye-Ree - Endless Melody
DYEAR=2009
DGENRE=Soul
TTITLE0=Intro
TTITLE1=Reality
TTITLE2=Fallin' in Love
TTITLE3=Day 'n' Night
TTITLE4=Endless Melody
TTITLE5=Don't you worry
TTITLE6=4 you
TTITLE7=Every lil' thing
TTITLE8=Speak your mind
TTITLE9=Africans
TTITLE10=Money
TTITLE11=They say
TTITLE12=No one
TTITLE13=Outta my mind
TTITLE14=On my way
EXTD=
EXTT0=
EXTT1=
EXTT2=
EXTT3=
EXTT4=
EXTT5=
EXTT6=
EXTT7=
EXTT8=
EXTT9=
EXTT10=
EXTT11=
EXTT12=
EXTT13=
EXTT14=
PLAYORDER=
